<?xml version="1.0" encoding="utf-8"?>
<!-- Generator: Adobe Illustrator 22.0.1, SVG Export Plug-In . SVG Version: 6.00 Build 0)  -->
<svg version="1.1" id="レイヤー_1" xmlns="http://www.w3.org/2000/svg" xmlns:xlink="http://www.w3.org/1999/xlink" x="0px"
	 y="0px" viewBox="0 0 234.98 71.366" enable-background="new 0 0 234.98 71.366" xml:space="preserve">
<g>
	<polyline fill="#B0237B" points="-0.167,69.469 9.744,69.469 59.747,3.519 59.747,69.506 100.651,69.506 100.651,61.589 
		68.509,61.589 68.509,10.107 99.902,10.107 99.902,2.191 50.839,2.191 -0.167,69.469 	"/>
	<polygon fill="#B0237B" points="226.576,2.191 226.576,53.646 189.647,2.191 182.979,2.191 182.979,69.506 191.243,69.506 
		191.243,18.041 228.255,69.506 234.836,69.506 234.836,2.191 	"/>
	<path fill="#B0237B" d="M140.008,0.667c-20.27,0-36.143,15.455-36.143,35.179c0,19.738,15.873,35.188,36.143,35.188
		c20.366,0,36.323-15.449,36.323-35.188C176.331,16.122,160.374,0.667,140.008,0.667z M140.195,63.304
		c-15.173,0-27.479-12.305-27.479-27.479c0-15.172,12.306-27.476,27.479-27.476c15.177,0,27.485,12.304,27.485,27.476
		C167.68,51,155.371,63.304,140.195,63.304z"/>
	<g>
		<linearGradient id="SVGID_1_" gradientUnits="userSpaceOnUse" x1="93.255" y1="48.2062" x2="93.255" y2="29.9697">
			<stop  offset="0" style="stop-color:#FFFFFF"/>
			<stop  offset="0.0402" style="stop-color:#F9EEF5"/>
			<stop  offset="0.1793" style="stop-color:#E6B9D5"/>
			<stop  offset="0.3201" style="stop-color:#D58BB9"/>
			<stop  offset="0.4598" style="stop-color:#C865A3"/>
			<stop  offset="0.5983" style="stop-color:#BD4891"/>
			<stop  offset="0.7353" style="stop-color:#B63485"/>
			<stop  offset="0.87" style="stop-color:#B1277E"/>
			<stop  offset="1" style="stop-color:#B0237B"/>
		</linearGradient>
		<path fill="url(#SVGID_1_)" d="M116.939,27.45c12.921,1.164,15.512,4.479,15.207,6.026c-0.795,3.993-17.428,7.414-38.854,7.414
			c-21.513,0-38.907-3.343-38.907-7.414c0-4.059,19.929-7.595,42.802-7.595c0,0,1.659,0.08,1.659-0.641
			c-0.032-0.853-1.596-0.763-1.596-0.763c-32.417,0-49.808,4.826-49.808,11.325c0,6.158,20.525,11.217,45.85,11.217
			c25.253,0,45.775-5.059,45.775-11.217c0-3.551-5.357-8.172-22.297-9.79c0,0-1.274-0.143-1.346,0.596
			C115.336,27.356,116.939,27.45,116.939,27.45z"/>
	</g>
	<rect x="59.747" y="17.364" fill="#B0237B" width="8.761" height="16.483"/>
</g>
</svg>
