<svg xmlns="http://www.w3.org/2000/svg" width="115" height="38" fill="#0213b0"><path d="M1.47756 37.3725h2.94261c.07098 0 .11777-.047.11777-.1183v-1.4249c0-.0713-.04679-.1183-.11777-.1183H3.07308c-.07098 0-.11776-.047-.11776-.1183v-1.6032c0-.0713.04678-.1183.11776-.1183h1.24061c.07099 0 .11777-.047.11777-.1184V32.341c0-.0714-.04678-.1184-.11777-.1184H3.07308c-.07098 0-.11776-.047-.11776-.1183v-1.1525c0-.154.08227-.2367.33072-.2367.29523 0 .72113.06 1.05185.261.13068.0713.20166.047.20166-.0827v-1.7101c0-.0714-.04678-.1184-.11777-.1184H1.24202c-.10648 0-.16617.0714-.14197.1783.10648.4993.14197.783.14197 1.8042v6.0901c0 .154.08227.2367.23554.2367v-.0017zm4.94119.1186c1.32289 0 2.09081-1.044 2.09081-2.4575 0-1.0455-.4372-1.6745-.94538-2.2677l-.14197-.167c-.4259-.4863-.69693-.8316-.69693-1.2822 0-.2853.14196-.582.47269-.582.29523 0 .47269.154.70822.4993.16617.2496.20166.2967.29523.2967.10648 0 .14197-.0843.14197-.214v-1.4119c0-.214-.03549-.4036-.18875-.5819-.21295-.2254-.60337-.3794-1.10994-.3794-1.32288 0-2.06821 1.0569-2.06821 2.4818 0 1.0569.49689 1.7458.98087 2.3034l.07098.0827c.39041.4506.72114.8186.72114 1.2709 0 .2723-.13068.6176-.49689.6176s-.59046-.2724-.83891-.676c-.14196-.2496-.16616-.321-.27264-.321-.11777 0-.15326.1184-.15326.2367v1.5902c0 .214.03549.4036.18875.569.21296.2366.62273.3923 1.24061.3923h.00161zm3.75135-.1185h1.2406c.1532 0 .2371-.0827.2371-.2367v-6.257c0-.0827.0113-.154.1533-.154.2355 0 .4259.1297.7921.308.1307.0599.2001 0 .2001-.1297v-1.7215c0-.0713-.0468-.1183-.1178-.1183H8.90687c-.07098 0-.11777.047-.11777.1183v1.7215c0 .1313.07099.1896.20166.1297.36622-.1783.55497-.308.79212-.308.14197 0 .15326.0713.15326.154v6.257c0 .154.08226.2367.23556.2367h-.0016zm90.8479 0c.154 0 .236-.0827.236-.2367V29.3c0-.154-.082-.2366-.236-.2366h-1.003c-.1421 0-.1889.0599-.2841.2609-.2597.5577-.5324 1.0213-.9212 1.4719-.1419.167-.1661.261-.1661.4993V32.97c0 .1313.0468.201.1177.201.1178 0 .2001-.154.5308-.6533l.2485-.368c.0467-.0713.0709-.0826.0951-.0826.0468 0 .0468.0599.0468.1426v4.9262c0 .154.0823.2367.2356.2367h1.0999zm2.764-8.4291c-1.405 0-2.044 1.0926-2.044 2.8854 0 1.6259.532 2.6585 1.547 2.6585.377 0 .673-.167.863-.3923.071-.0827.142-.0957.142.0956 0 1.0682-.342 1.6858-.91 1.6858-.366 0-.544-.2366-.803-.6403-.096-.1426-.166-.2253-.26-.2253-.107 0-.153.107-.153.261v1.3179c0 .2723.059.4636.259.6176s.58.2853 1.075.2853c1.666 0 2.457-1.5076 2.457-4.6409 0-2.6601-.673-3.905-2.175-3.905l.002-.0033zm-.366 2.8011c0-1.2222.166-1.4962.39-1.4962.236 0 .402.2853.402 1.4962s-.166 1.4962-.402 1.4962-.39-.2723-.39-1.4962zm3.36 5.6279h1.205c.213 0 .271-.0599.271-.2723-.011-2.1851.544-4.2032 1.548-6.2684.106-.214.142-.368.142-.5933v-.9369c0-.154-.083-.2367-.236-.2367h-3.331c-.154 0-.236.0827-.236.2367v1.2579c0 .154.082.2366.236.2366h1.571c.248 0 .213.1184.118.2967-1.028 1.9468-1.525 3.8709-1.583 5.9831-.011.2367.071.2966.295.2966zm5.373.1186c1.406 0 2.044-1.0926 2.044-2.8854 0-1.6259-.533-2.6585-1.548-2.6585-.377 0-.672.167-.863.3923-.071.0827-.142.0957-.142-.0956 0-1.0683.342-1.6858.91-1.6858.366 0 .544.2366.804.6419.095.1426.166.2253.259.2253.107 0 .154-.107.154-.261v-1.3179c0-.2723-.06-.4636-.26-.6176s-.579-.2853-1.075-.2853c-1.666 0-2.457 1.5076-2.457 4.6409 0 2.6601.675 3.905 2.175 3.905l-.001.0017zm-.426-2.8011c0-1.2109.166-1.4962.401-1.4962s.391.2723.391 1.4962-.166 1.4962-.391 1.4962c-.235 0-.401-.2853-.401-1.4962zM24.1763 7.15064c-.6292.26747-1.3536.41336-2.1473.41336s-1.5197-.14427-2.1489-.41012c-.5324-.22531-.9567.04215-.9567.62085V25.1777c0 .381.3066.689.6857.689h4.8382c.3791 0 .6856-.308.6856-.689V7.77148c0-.58031-.4259-.84778-.9583-.62084h.0017zM22.0016.492676c-2.0344 0-3.3798 1.103894-3.325 2.925894.0549 1.73933 1.3197 2.9259 3.3524 2.9259s3.325-1.18657 3.325-2.9259S24.0359.492676 22.0016.492676zM88.2702 7.15064c-.6292.26747-1.3535.41336-2.1473.41336s-1.5197-.14427-2.1488-.41012c-.5324-.22531-.9567.04215-.9567.62085V25.1777c0 .381.3065.689.6856.689h4.8382c.3792 0 .6857-.308.6857-.689V7.77148c0-.58031-.4259-.84778-.9583-.62084h.0016zM86.0953.492676c-2.0327 0-3.3798 1.103894-3.3249 2.925894.0548 1.73933 1.3196 2.9259 3.3524 2.9259s3.3249-1.18657 3.3249-2.9259S88.1281.492676 86.0953.492676zm10.2474.370811h-5.3755c-.4726 0-.7727.413353-.6679.844543.355 1.46376.5195 3.23064.5195 5.61675V25.1768c0 .381.3065.6889.6857.6889h4.8382c.3791 0 .6856-.3079.6856-.6889V1.55403c0-.38093-.3065-.688922-.6856-.688922V.863487zm-78.7357 0h-6.6773c-.4372 0-.7276.377693-.5889.807253.4534 1.39406.413 2.64061.3227 3.80448L9.61969 19.1856c-.03065.3972-.51786.3972-.5469 0L8.04029 5.47522c-.09034-1.16387-.13067-2.4088.32266-3.80448.14035-.42956-.15004-.807253-.58885-.807253H.916071c-.511408 0-.8324502.474953-.629178.961253.608205 1.4589.903437 2.89186 1.076057 4.09139L4.20392 24.9855c.07583.5058.50819.8802 1.01798.8802h8.068c.5098 0 .9421-.3744 1.018-.8802l2.8522-19.06937c.1743-1.19953.4695-2.63249 1.0761-4.09139.2033-.48792-.1194-.961253-.6292-.961253zM114.152 25.0232l-5.355-10.0891c-.127-.2383-.192-.4653-.192-.663 0-.5803.404-1.0861 1.475-1.0861.558 0 .977.0568 1.534.1767.355.0762.69-.1345.69-.5609V7.48722c0-.63543-.617-.75377-1.329-.75377-3.869 0-5.016 2.78487-5.261 5.70105-.074.8818-.293 1.2579-.679 1.2579-.126 0-.206-.0794-.206-.2594V1.55437c0-.38094-.307-.688925-.686-.688925h-5.3755c-.4727 0-.7728.413355-.6679.844535.3549 1.46376.5194 3.23065.5194 5.61676V25.1788c0 .3809.3066.6889.6857.6889h4.8383c.379 0 .686-.308.686-.6889v-5.9507c0-.2075.216-.274.287-.0762l2.26 6.095c.126.3728.474.6224.866.6224h5.406c.462 0 .709-.462.505-.8445l-.001-.0016zM37.102 6.73147c-1.6569 0-3.0556.42308-4.1962 1.58857-.1081.11023-.2936.03242-.2936-.12157v-.41984c0-.38093-.3065-.68892-.6856-.68892h-5.056c-.4743 0-.7728.41659-.6663.8494.3549 1.46214.5179 3.22739.5179 5.61189v11.6258c0 .3809.3065.6889.6856.6889h4.8382c.3791 0 .6856-.308.6856-.6889V12.8329c0-.877.4679-1.3811 1.21-1.3811.6873 0 1.1261.5025 1.1261 1.3811v12.3439c0 .3809.3065.6889.6856.6889h4.8382c.3791 0 .6857-.308.6857-.6889V11.4259c0-3.01832-1.7408-4.69443-4.3785-4.69443h.0033zm40.1074 0c-1.7278 0-3.2201.68406-4.1881 1.68907-.1145.11834-.2678.11023-.3581-.03566-.6711-1.07472-1.8505-1.65341-3.496-1.65341s-3.0055.66298-3.9929 1.61775c-.108.10537-.2903.02756-.2903-.12482v-.44415c0-.38093-.3066-.68892-.6857-.68892h-5.056c-.4743 0-.7727.41659-.6663.8494.355 1.46214.5179 3.22737.5179 5.61187v11.6258c0 .3809.3065.6889.6856.6889h4.8382c.3792 0 .6857-.308.6857-.6889V12.8313c0-.8138.2855-1.3762 1.026-1.3762.6873 0 .8986.5641.8986 1.381V25.18c0 .381.3065.689.6857.689h4.8382c.3791 0 .6856-.308.6856-.689V12.8005c.0081-.7927.2952-1.3438 1.0261-1.3438.6872 0 .8986.5641.8986 1.3811v12.3438c0 .381.3065.689.6856.689h4.8382c.3791 0 .6856-.308.6856-.689V11.4307c0-2.90641-1.4842-4.69437-4.2638-4.69437l.0016-.00486zm-26.3899 0c-2.1876 0-4.735.47171-6.7677 2.15754-.2113.17669-.3356.43767-.3356.71324v4.21785c0 .5041.5711.7829.9648.4425 2.0311-1.7571 4.0267-2.7832 5.4658-2.7832.7695 0 1.2373.2091 1.2373.8137 0 .9564-1.347 1.3406-3.8347 2.4704-2.3796 1.0796-4.9866 2.6698-4.9866 6.2976 0 3.2857 2.0359 5.1175 4.6994 5.1175 2.1215 0 3.2524-.7473 4.0832-1.7053.1033-.12.3001-.0454.3001.1134v.5901c0 .3809.3065.6889.6856.6889h4.4398c.3791 0 .6856-.308.6856-.6889v-12.117c0-4.34261-2.1247-6.32833-6.637-6.32833zm.7082 12.82203c0 1.326-.6598 2.049-1.56 2.049-.6598 0-1.26-.4523-1.26-1.3552 0-1.4524 1.4455-2.271 2.5942-3.2647.0887-.0761.2258-.0129.2258.1054v2.4655zM110.685 4.23552c-.997 0-1.75-.71324-1.75-1.74744s.732-1.747431 1.75-1.747431 1.75.750521 1.75 1.747431-.732 1.74744-1.75 1.74744zm0-3.17391c-.836 0-1.384.59328-1.384 1.42647s.548 1.42648 1.384 1.42648 1.384-.59328 1.384-1.42648-.548-1.42647-1.384-1.42647z"/><path d="M111.18 2.78767c-.005-.00811 0-.01946.008-.02432.229-.11023.354-.32906.354-.60463 0-.1621-.055-.69055-.755-.69055h-.767c-.04 0-.053.02594-.04.05674.037.09402.055.15237.055.3631v1.47835c0 .02594.021.04701.047.04701h.374c.026 0 .047-.02107.047-.04701v-.50413c0-.00972.008-.01783.017-.01783h.162c.008 0 .016.00486.021.01297l.251.5252c.01.01783.028.0308.049.0308h.468c.038 0 .054-.03242.037-.06484l-.328-.56411v.00325zm-.44-.29178h-.22c-.009 0-.017-.00811-.017-.01783v-.60301c0-.00973.008-.01784.017-.01784h.22c.284 0 .327.19777.327.31448 0 .09726-.032.32582-.327.32582v-.00162z"/></svg>